<mxfile host="65bd71144e" modified="2021-01-27T17:50:03.979Z" agent="5.0 (Windows NT 10.0; Win64; x64) AppleWebKit/537.36 (KHTML, like Gecko) Code/1.52.1 Chrome/83.0.4103.122 Electron/9.3.5 Safari/537.36" etag="KH1UQL65tKgSQhk4INGg" version="13.10.0" type="embed">
    <diagram id="sPkj91pffvdwlHrMhWQ4" name="電卓">
        <mxGraphModel dx="2031" dy="704" grid="1" gridSize="10" guides="1" tooltips="1" connect="1" arrows="1" fold="1" page="1" pageScale="1" pageWidth="827" pageHeight="1169" math="0" shadow="0">
            <root>
                <mxCell id="0"/>
                <mxCell id="1" parent="0"/>
                <mxCell id="58" value="&lt;div style=&quot;text-align: left&quot;&gt;&lt;font color=&quot;#000000&quot;&gt;&amp;lt;footer&amp;gt;&amp;lt;div class=&quot;container border&quot;&amp;gt;CopyRight&amp;lt;/div&amp;gt;&amp;lt;/footer&amp;gt;&lt;/font&gt;&lt;br&gt;&lt;/div&gt;" style="rounded=0;whiteSpace=wrap;html=1;fillColor=#1ba1e2;strokeColor=#006EAF;fontColor=#ffffff;" parent="1" vertex="1">
                    <mxGeometry x="-270" y="610" width="250" height="42.5" as="geometry"/>
                </mxCell>
                <mxCell id="55" value="&lt;div style=&quot;text-align: left&quot;&gt;&lt;font color=&quot;#000000&quot;&gt;&amp;lt;header&amp;gt;&amp;lt;div class=&quot;container border&quot;&amp;gt;電卓&amp;lt;/div&amp;gt;&amp;lt;/header&amp;gt;&lt;/font&gt;&lt;br&gt;&lt;/div&gt;" style="rounded=0;whiteSpace=wrap;html=1;fillColor=#1ba1e2;strokeColor=#006EAF;fontColor=#ffffff;" parent="1" vertex="1">
                    <mxGeometry x="-270" y="27.5" width="250" height="42.5" as="geometry"/>
                </mxCell>
                <mxCell id="48" value="&lt;div style=&quot;text-align: left&quot;&gt;&lt;font color=&quot;#000000&quot;&gt;&amp;lt;div class=&quot;container border&quot;&amp;gt;&amp;lt;/div&amp;gt;&lt;/font&gt;&lt;br&gt;&lt;/div&gt;" style="rounded=0;whiteSpace=wrap;html=1;fillColor=#1ba1e2;strokeColor=#006EAF;fontColor=#ffffff;" parent="1" vertex="1">
                    <mxGeometry x="-270" y="318.75" width="250" height="42.5" as="geometry"/>
                </mxCell>
                <mxCell id="2" value="Header" style="rounded=0;whiteSpace=wrap;html=1;align=left;verticalAlign=top;strokeColor=#6c8ebf;fontStyle=1;fillColor=#dae8fc;" parent="1" vertex="1">
                    <mxGeometry x="30" y="20" width="760" height="60" as="geometry"/>
                </mxCell>
                <mxCell id="3" value="Footer" style="rounded=0;whiteSpace=wrap;html=1;align=left;verticalAlign=top;strokeColor=#d79b00;fillColor=#ffe6cc;" parent="1" vertex="1">
                    <mxGeometry x="30" y="610" width="760" height="40" as="geometry"/>
                </mxCell>
                <mxCell id="4" value="" style="rounded=0;whiteSpace=wrap;html=1;align=left;verticalAlign=top;strokeColor=#CCCCCC;" parent="1" vertex="1">
                    <mxGeometry x="40" y="90" width="760" height="510" as="geometry"/>
                </mxCell>
                <mxCell id="5" value="title logo" style="text;html=1;align=center;verticalAlign=middle;whiteSpace=wrap;rounded=0;opacity=40;fillColor=#f5f5f5;strokeColor=#666666;fontColor=#333333;" parent="1" vertex="1">
                    <mxGeometry x="284" y="30" width="240" height="40" as="geometry"/>
                </mxCell>
                <mxCell id="6" value="copyright" style="rounded=0;whiteSpace=wrap;html=1;strokeColor=#666666;fontSize=12;opacity=50;align=center;fillColor=#f5f5f5;fontColor=#333333;" parent="1" vertex="1">
                    <mxGeometry x="255" y="630" width="310" height="10" as="geometry"/>
                </mxCell>
                <mxCell id="7" value="" style="rounded=1;whiteSpace=wrap;html=1;arcSize=4;" parent="1" vertex="1">
                    <mxGeometry x="230" y="110" width="355" height="420" as="geometry"/>
                </mxCell>
                <mxCell id="8" value="計算結果を出力" style="rounded=1;whiteSpace=wrap;html=1;" parent="1" vertex="1">
                    <mxGeometry x="255" y="130" width="310" height="60" as="geometry"/>
                </mxCell>
                <mxCell id="9" value="" style="rounded=1;whiteSpace=wrap;html=1;" parent="1" vertex="1">
                    <mxGeometry x="255" y="210" width="60" height="60" as="geometry"/>
                </mxCell>
                <mxCell id="10" value="" style="rounded=1;whiteSpace=wrap;html=1;" parent="1" vertex="1">
                    <mxGeometry x="339" y="210" width="60" height="60" as="geometry"/>
                </mxCell>
                <mxCell id="11" value="" style="rounded=1;whiteSpace=wrap;html=1;" parent="1" vertex="1">
                    <mxGeometry x="425" y="210" width="60" height="60" as="geometry"/>
                </mxCell>
                <mxCell id="12" value="" style="rounded=1;whiteSpace=wrap;html=1;" parent="1" vertex="1">
                    <mxGeometry x="255" y="290" width="60" height="60" as="geometry"/>
                </mxCell>
                <mxCell id="13" value="" style="rounded=1;whiteSpace=wrap;html=1;" parent="1" vertex="1">
                    <mxGeometry x="339" y="290" width="60" height="60" as="geometry"/>
                </mxCell>
                <mxCell id="14" value="" style="rounded=1;whiteSpace=wrap;html=1;" parent="1" vertex="1">
                    <mxGeometry x="425" y="290" width="60" height="60" as="geometry"/>
                </mxCell>
                <mxCell id="15" value="" style="rounded=1;whiteSpace=wrap;html=1;" parent="1" vertex="1">
                    <mxGeometry x="254" y="370" width="60" height="60" as="geometry"/>
                </mxCell>
                <mxCell id="16" value="" style="rounded=1;whiteSpace=wrap;html=1;" parent="1" vertex="1">
                    <mxGeometry x="338" y="370" width="60" height="60" as="geometry"/>
                </mxCell>
                <mxCell id="17" value="" style="rounded=1;whiteSpace=wrap;html=1;" parent="1" vertex="1">
                    <mxGeometry x="424" y="370" width="60" height="60" as="geometry"/>
                </mxCell>
                <mxCell id="18" value="" style="rounded=1;whiteSpace=wrap;html=1;" parent="1" vertex="1">
                    <mxGeometry x="255" y="450" width="60" height="60" as="geometry"/>
                </mxCell>
                <mxCell id="19" value="" style="rounded=1;whiteSpace=wrap;html=1;" parent="1" vertex="1">
                    <mxGeometry x="505" y="210" width="60" height="60" as="geometry"/>
                </mxCell>
                <mxCell id="20" value="" style="rounded=1;whiteSpace=wrap;html=1;" parent="1" vertex="1">
                    <mxGeometry x="505" y="290" width="60" height="60" as="geometry"/>
                </mxCell>
                <mxCell id="21" value="" style="rounded=1;whiteSpace=wrap;html=1;" parent="1" vertex="1">
                    <mxGeometry x="424" y="450" width="61" height="60" as="geometry"/>
                </mxCell>
                <mxCell id="22" value="" style="rounded=1;whiteSpace=wrap;html=1;" parent="1" vertex="1">
                    <mxGeometry x="505" y="450" width="60" height="60" as="geometry"/>
                </mxCell>
                <mxCell id="23" value="" style="rounded=1;whiteSpace=wrap;html=1;" parent="1" vertex="1">
                    <mxGeometry x="505" y="370" width="60" height="60" as="geometry"/>
                </mxCell>
                <mxCell id="24" value="+" style="text;html=1;strokeColor=none;fillColor=none;align=center;verticalAlign=middle;whiteSpace=wrap;rounded=0;fontSize=35;" parent="1" vertex="1">
                    <mxGeometry x="505" y="470" width="60" height="20" as="geometry"/>
                </mxCell>
                <mxCell id="25" value="-" style="text;html=1;strokeColor=none;fillColor=none;align=center;verticalAlign=middle;whiteSpace=wrap;rounded=0;fontSize=35;" parent="1" vertex="1">
                    <mxGeometry x="505" y="390" width="60" height="20" as="geometry"/>
                </mxCell>
                <mxCell id="26" value="×" style="text;html=1;strokeColor=none;fillColor=none;align=center;verticalAlign=middle;whiteSpace=wrap;rounded=0;fontSize=35;" parent="1" vertex="1">
                    <mxGeometry x="505" y="310" width="60" height="20" as="geometry"/>
                </mxCell>
                <mxCell id="27" value="÷" style="text;html=1;strokeColor=none;fillColor=none;align=center;verticalAlign=middle;whiteSpace=wrap;rounded=0;fontSize=35;" parent="1" vertex="1">
                    <mxGeometry x="505" y="230" width="60" height="20" as="geometry"/>
                </mxCell>
                <mxCell id="28" value="1" style="text;html=1;strokeColor=none;fillColor=none;align=center;verticalAlign=middle;whiteSpace=wrap;rounded=0;fontSize=26;" parent="1" vertex="1">
                    <mxGeometry x="255" y="390" width="60" height="20" as="geometry"/>
                </mxCell>
                <mxCell id="29" value="2" style="text;html=1;strokeColor=none;fillColor=none;align=center;verticalAlign=middle;whiteSpace=wrap;rounded=0;fontSize=26;" parent="1" vertex="1">
                    <mxGeometry x="339" y="390" width="60" height="20" as="geometry"/>
                </mxCell>
                <mxCell id="30" value="3" style="text;html=1;strokeColor=none;fillColor=none;align=center;verticalAlign=middle;whiteSpace=wrap;rounded=0;fontSize=26;" parent="1" vertex="1">
                    <mxGeometry x="425" y="390" width="60" height="20" as="geometry"/>
                </mxCell>
                <mxCell id="31" value="4" style="text;html=1;strokeColor=none;fillColor=none;align=center;verticalAlign=middle;whiteSpace=wrap;rounded=0;fontSize=26;" parent="1" vertex="1">
                    <mxGeometry x="254" y="310" width="60" height="20" as="geometry"/>
                </mxCell>
                <mxCell id="32" value="5" style="text;html=1;strokeColor=none;fillColor=none;align=center;verticalAlign=middle;whiteSpace=wrap;rounded=0;fontSize=26;" parent="1" vertex="1">
                    <mxGeometry x="338" y="310" width="60" height="20" as="geometry"/>
                </mxCell>
                <mxCell id="33" value="6" style="text;html=1;strokeColor=none;fillColor=none;align=center;verticalAlign=middle;whiteSpace=wrap;rounded=0;fontSize=26;" parent="1" vertex="1">
                    <mxGeometry x="424" y="310" width="60" height="20" as="geometry"/>
                </mxCell>
                <mxCell id="34" value="7" style="text;html=1;strokeColor=none;fillColor=none;align=center;verticalAlign=middle;whiteSpace=wrap;rounded=0;fontSize=26;" parent="1" vertex="1">
                    <mxGeometry x="255" y="230" width="60" height="20" as="geometry"/>
                </mxCell>
                <mxCell id="35" value="0" style="text;html=1;strokeColor=none;fillColor=none;align=center;verticalAlign=middle;whiteSpace=wrap;rounded=0;fontSize=26;" parent="1" vertex="1">
                    <mxGeometry x="255" y="470" width="60" height="20" as="geometry"/>
                </mxCell>
                <mxCell id="36" value="9" style="text;html=1;strokeColor=none;fillColor=none;align=center;verticalAlign=middle;whiteSpace=wrap;rounded=0;fontSize=26;" parent="1" vertex="1">
                    <mxGeometry x="424" y="230" width="60" height="20" as="geometry"/>
                </mxCell>
                <mxCell id="37" value="8" style="text;html=1;strokeColor=none;fillColor=none;align=center;verticalAlign=middle;whiteSpace=wrap;rounded=0;fontSize=26;" parent="1" vertex="1">
                    <mxGeometry x="339" y="230" width="60" height="20" as="geometry"/>
                </mxCell>
                <mxCell id="38" value="=" style="text;html=1;strokeColor=none;fillColor=none;align=center;verticalAlign=middle;whiteSpace=wrap;rounded=0;fontSize=35;" parent="1" vertex="1">
                    <mxGeometry x="424" y="470" width="60" height="20" as="geometry"/>
                </mxCell>
                <mxCell id="39" value="履歴" style="rounded=1;whiteSpace=wrap;html=1;" parent="1" vertex="1">
                    <mxGeometry x="230" y="540" width="355" height="30" as="geometry"/>
                </mxCell>
                <mxCell id="41" value="&lt;div style=&quot;text-align: left&quot;&gt;&lt;div&gt;&amp;nbsp; &amp;nbsp; &amp;nbsp; &amp;nbsp; &amp;lt;div class=&quot;row&quot;&amp;gt;&lt;/div&gt;&lt;div&gt;&amp;nbsp; &amp;nbsp; &amp;nbsp; &amp;nbsp; &amp;nbsp; &amp;lt;button type=&quot;button&quot; class=&quot;col-1 btn btn-light border m-2&quot;&amp;gt;7&amp;lt;/button&amp;gt;&lt;/div&gt;&lt;div&gt;&amp;nbsp; &amp;nbsp; &amp;nbsp; &amp;nbsp; &amp;nbsp; &amp;lt;button type=&quot;button&quot; class=&quot;col-1 btn btn-light border m-2&quot;&amp;gt;8&amp;lt;/button&amp;gt;&lt;/div&gt;&lt;div&gt;&amp;nbsp; &amp;nbsp; &amp;nbsp; &amp;nbsp; &amp;nbsp; &amp;lt;button type=&quot;button&quot; class=&quot;col-1 btn btn-light border m-2&quot;&amp;gt;9&amp;lt;/button&amp;gt;&lt;/div&gt;&lt;div&gt;&amp;nbsp; &amp;nbsp; &amp;nbsp; &amp;nbsp; &amp;nbsp; &amp;lt;button type=&quot;button&quot; class=&quot;col-1 btn btn-light border m-2&quot;&amp;gt;÷&amp;lt;/button&amp;gt;&lt;/div&gt;&lt;div&gt;&amp;nbsp; &amp;nbsp; &amp;nbsp; &amp;nbsp; &amp;lt;/div&amp;gt;&lt;/div&gt;&lt;div&gt;&amp;nbsp; &amp;nbsp; &amp;nbsp; &amp;nbsp; &amp;lt;div class=&quot;row&quot;&amp;gt;&amp;nbsp;&amp;nbsp;&lt;/div&gt;&lt;div&gt;&amp;nbsp; &amp;nbsp; &amp;nbsp; &amp;nbsp; &amp;nbsp; &amp;lt;button type=&quot;button&quot; class=&quot;col-1 btn btn-light border m-2&quot;&amp;gt;4&amp;lt;/button&amp;gt;&lt;/div&gt;&lt;div&gt;&amp;nbsp; &amp;nbsp; &amp;nbsp; &amp;nbsp; &amp;nbsp; &amp;lt;button type=&quot;button&quot; class=&quot;col-1 btn btn-light border m-2&quot;&amp;gt;5&amp;lt;/button&amp;gt;&lt;/div&gt;&lt;div&gt;&amp;nbsp; &amp;nbsp; &amp;nbsp; &amp;nbsp; &amp;nbsp; &amp;lt;button type=&quot;button&quot; class=&quot;col-1 btn btn-light border m-2&quot;&amp;gt;6&amp;lt;/button&amp;gt;&lt;/div&gt;&lt;div&gt;&amp;nbsp; &amp;nbsp; &amp;nbsp; &amp;nbsp; &amp;nbsp; &amp;lt;button type=&quot;button&quot; class=&quot;col-1 btn btn-light border m-2&quot;&amp;gt;×&amp;lt;/button&amp;gt;&lt;/div&gt;&lt;div&gt;&amp;nbsp; &amp;nbsp; &amp;nbsp; &amp;nbsp; &amp;lt;/div&amp;gt;&lt;/div&gt;&lt;div&gt;&amp;nbsp; &amp;nbsp; &amp;nbsp; &amp;nbsp; &amp;lt;div class=&quot;row&quot;&amp;gt;&amp;nbsp;&amp;nbsp;&lt;/div&gt;&lt;div&gt;&amp;nbsp; &amp;nbsp; &amp;nbsp; &amp;nbsp; &amp;nbsp; &amp;lt;button type=&quot;button&quot; class=&quot;col-1 btn btn-light border m-2&quot;&amp;gt;1&amp;lt;/button&amp;gt;&lt;/div&gt;&lt;div&gt;&amp;nbsp; &amp;nbsp; &amp;nbsp; &amp;nbsp; &amp;nbsp; &amp;lt;button type=&quot;button&quot; class=&quot;col-1 btn btn-light border m-2&quot;&amp;gt;2&amp;lt;/button&amp;gt;&lt;/div&gt;&lt;div&gt;&amp;nbsp; &amp;nbsp; &amp;nbsp; &amp;nbsp; &amp;nbsp; &amp;lt;button type=&quot;button&quot; class=&quot;col-1 btn btn-light border m-2&quot;&amp;gt;3&amp;lt;/button&amp;gt;&lt;/div&gt;&lt;div&gt;&amp;nbsp; &amp;nbsp; &amp;nbsp; &amp;nbsp; &amp;nbsp; &amp;lt;button type=&quot;button&quot; class=&quot;col-1 btn btn-light border m-2&quot;&amp;gt;-&amp;lt;/button&amp;gt;&lt;/div&gt;&lt;div&gt;&amp;nbsp; &amp;nbsp; &amp;nbsp; &amp;nbsp; &amp;lt;/div&amp;gt;&lt;/div&gt;&lt;div&gt;&amp;nbsp; &amp;nbsp; &amp;nbsp; &amp;nbsp; &amp;lt;div class=&quot;row&quot;&amp;gt;&amp;nbsp;&amp;nbsp;&lt;/div&gt;&lt;div&gt;&amp;nbsp; &amp;nbsp; &amp;nbsp; &amp;nbsp; &amp;nbsp; &amp;lt;button type=&quot;button&quot; class=&quot;col-1 btn btn-light border m-2&quot;&amp;gt;0&amp;lt;/button&amp;gt;&lt;/div&gt;&lt;div&gt;&amp;nbsp; &amp;nbsp; &amp;nbsp; &amp;nbsp; &amp;nbsp; &amp;lt;button type=&quot;button&quot; class=&quot;col-1 btn btn-light border m-2&quot;&amp;gt;.&amp;lt;/button&amp;gt;&lt;/div&gt;&lt;div&gt;&amp;nbsp; &amp;nbsp; &amp;nbsp; &amp;nbsp; &amp;nbsp; &amp;lt;button type=&quot;button&quot; class=&quot;col-1 btn btn-light border m-2&quot;&amp;gt;=&amp;lt;/button&amp;gt;&lt;/div&gt;&lt;div&gt;&amp;nbsp; &amp;nbsp; &amp;nbsp; &amp;nbsp; &amp;nbsp; &amp;lt;button type=&quot;button&quot; class=&quot;col-1 btn btn-light border m-2&quot;&amp;gt;+&amp;lt;/button&amp;gt;&lt;/div&gt;&lt;div&gt;&amp;nbsp; &amp;nbsp; &amp;nbsp; &amp;nbsp; &amp;lt;/div&amp;gt;&lt;/div&gt;&lt;/div&gt;" style="rounded=0;whiteSpace=wrap;html=1;strokeColor=#006EAF;fillColor=#00FFFF;fontColor=#000000;" parent="1" vertex="1">
                    <mxGeometry x="620" y="184" width="430" height="352" as="geometry"/>
                </mxCell>
                <mxCell id="45" value="" style="shape=curlyBracket;whiteSpace=wrap;html=1;rounded=1;fillColor=#1ba1e2;strokeColor=#006EAF;fontColor=#ffffff;strokeWidth=3;direction=east;" parent="1" vertex="1">
                    <mxGeometry x="-50" y="90" width="75" height="500" as="geometry"/>
                </mxCell>
                <mxCell id="62" style="edgeStyle=orthogonalEdgeStyle;rounded=0;orthogonalLoop=1;jettySize=auto;html=1;exitX=1;exitY=0.5;exitDx=0;exitDy=0;" edge="1" parent="1" source="50" target="41">
                    <mxGeometry relative="1" as="geometry"/>
                </mxCell>
                <mxCell id="50" value="" style="rounded=0;whiteSpace=wrap;html=1;strokeWidth=3;fillColor=none;strokeColor=#00FFFF;" parent="1" vertex="1">
                    <mxGeometry x="240" y="200" width="340" height="320" as="geometry"/>
                </mxCell>
                <mxCell id="53" value="" style="shape=curlyBracket;whiteSpace=wrap;html=1;rounded=1;fillColor=#1ba1e2;strokeColor=#006EAF;fontColor=#ffffff;strokeWidth=3;direction=east;" parent="1" vertex="1">
                    <mxGeometry x="-50" y="20" width="75" height="60" as="geometry"/>
                </mxCell>
                <mxCell id="54" value="" style="shape=curlyBracket;whiteSpace=wrap;html=1;rounded=1;fillColor=#1ba1e2;strokeColor=#006EAF;fontColor=#ffffff;strokeWidth=3;direction=east;" parent="1" vertex="1">
                    <mxGeometry x="-50" y="600" width="75" height="60" as="geometry"/>
                </mxCell>
                <mxCell id="59" value="" style="rounded=0;whiteSpace=wrap;html=1;strokeWidth=3;fillColor=none;strokeColor=#00FFFF;" parent="1" vertex="1">
                    <mxGeometry x="240" y="125" width="340" height="70" as="geometry"/>
                </mxCell>
                <mxCell id="67" value="" style="edgeStyle=orthogonalEdgeStyle;rounded=0;orthogonalLoop=1;jettySize=auto;html=1;fontColor=#000000;" edge="1" parent="1" source="60" target="65">
                    <mxGeometry relative="1" as="geometry"/>
                </mxCell>
                <mxCell id="60" value="" style="rounded=0;whiteSpace=wrap;html=1;strokeWidth=3;fillColor=none;strokeColor=#00FFFF;" parent="1" vertex="1">
                    <mxGeometry x="225" y="535" width="365" height="45" as="geometry"/>
                </mxCell>
                <mxCell id="63" value="" style="endArrow=classic;html=1;fontColor=#000000;exitX=1;exitY=0.5;exitDx=0;exitDy=0;entryX=0;entryY=0.5;entryDx=0;entryDy=0;" edge="1" parent="1" source="59" target="64">
                    <mxGeometry width="50" height="50" relative="1" as="geometry">
                        <mxPoint x="340" y="390" as="sourcePoint"/>
                        <mxPoint x="390" y="340" as="targetPoint"/>
                    </mxGeometry>
                </mxCell>
                <mxCell id="64" value="&lt;div style=&quot;text-align: left&quot;&gt;&amp;lt;div class=&quot;row border&quot;&amp;gt;計算結果を出力&amp;lt;/div&amp;gt;&lt;br&gt;&lt;/div&gt;" style="rounded=0;whiteSpace=wrap;html=1;strokeColor=#006EAF;fillColor=#00FFFF;fontColor=#000000;" vertex="1" parent="1">
                    <mxGeometry x="620" y="130" width="430" height="32" as="geometry"/>
                </mxCell>
                <mxCell id="65" value="&lt;div style=&quot;text-align: left&quot;&gt;&amp;lt;div class=&quot;row border&quot;&amp;gt;履歴&amp;lt;/div&amp;gt;&lt;br&gt;&lt;/div&gt;" style="rounded=0;whiteSpace=wrap;html=1;strokeColor=#006EAF;fillColor=#00FFFF;fontColor=#000000;" vertex="1" parent="1">
                    <mxGeometry x="620" y="553" width="430" height="32" as="geometry"/>
                </mxCell>
            </root>
        </mxGraphModel>
    </diagram>
</mxfile>